# xmcd
#
# Track frame offsets:
#	150
#	16694
#	34600
#	49585
#	68245
#	84219
#	101383
#	115814
#	128154
#	142930
#	158795
#
# Disc length: 2390 seconds
# Revision: 0
# Processed by: cddbd v1.5.2PL0 Copyright (c) Steve Scherf et al.
# Submitted via: dBpowerAMP V12.0
#
DISCID=7a09540b
DTITLE=The Heifer Belles - The Way
DYEAR=2016
DGENRE=Country
TTITLE0=The Way
TTITLE1=Old Lake Charles
TTITLE2=Over You Now
TTITLE3=In the Morning
TTITLE4=Old Adobe
TTITLE5=The Learning Song
TTITLE6=Barn Dance
TTITLE7=Hey Little Girl
TTITLE8=Local Bar
TTITLE9=The Lesson
TTITLE10=Magic Man
EXTD=
EXTT0=
EXTT1=
EXTT2=
EXTT3=
EXTT4=
EXTT5=
EXTT6=
EXTT7=
EXTT8=
EXTT9=
EXTT10=
PLAYORDER=
